# xmcd
#
# Track frame offsets: 
#        150
#        14047
#        28747
#        43490
#        61490
#        82670
#        101322
#        115967
#        135197
#        151997
#
# Disc length: 2252 seconds
#
# Revision: 2
# Processed by: cddbd v1.5.1PL0 Copyright (c) Steve Scherf et al.
# Submitted via: ExactAudioCopy v0.90b4
#
DISCID=7908ca0a
DTITLE=Mark Wills - The Best Of Mark Wills (20th Century Masters The M
DTITLE=illennium Collection)
DYEAR=2004
DGENRE=Country
TTITLE0=Jacob's Ladder
TTITLE1=High Low And In Between
TTITLE2=I Do (Cherish You)
TTITLE3=Wish You Were Here
TTITLE4=She's In Love
TTITLE5=In My Arms
TTITLE6=Everything There Is To Know About You
TTITLE7=Loving Every Minute
TTITLE8=One Of These Days
TTITLE9=The Balloon Song
EXTD=
EXTT0=
EXTT1=
EXTT2=
EXTT3=
EXTT4=
EXTT5=
EXTT6=
EXTT7=
EXTT8=
EXTT9=
PLAYORDER=
